<svg xmlns="http://www.w3.org/2000/svg" xmlns:xlink="http://www.w3.org/1999/xlink" width="104" height="72" viewBox="0 0 104 72">
  <defs>
    <style>
      .cls-1 {
        fill: #fff;
        stroke: #707070;
      }

      .cls-2 {
        clip-path: url(#clip-path);
      }

      .cls-3 {
        isolation: isolate;
      }

      .cls-4 {
        fill: #fc9100;
      }

      .cls-10, .cls-4, .cls-5, .cls-7, .cls-8, .cls-9 {
        stroke-linecap: round;
      }

      .cls-5 {
        fill: #c97400;
      }

      .cls-10, .cls-5, .cls-6, .cls-9 {
        stroke: #fee9cc;
        stroke-width: 2px;
      }

      .cls-13, .cls-6, .cls-8, .cls-9 {
        fill: none;
      }

      .cls-6 {
        stroke-linecap: square;
      }

      .cls-7 {
        fill: #021028;
      }

      .cls-10, .cls-12 {
        fill: #fee9cc;
      }

      .cls-11, .cls-12 {
        stroke: none;
      }
    </style>
    <clipPath id="clip-path">
      <rect id="Rectangle_3746" data-name="Rectangle 3746" class="cls-1" width="104" height="72" transform="translate(-9628 -20983)"/>
    </clipPath>
  </defs>
  <g id="Career-support" class="cls-2" transform="translate(9628 20983)">
    <g id="Group_18749" data-name="Group 18749" transform="translate(12596.521 -7745.208)">
      <g id="Group_18748" data-name="Group 18748" transform="translate(-22206.664 -13235.534)">
        <g id="Group_18740" data-name="Group 18740" class="cls-3" transform="translate(0 39.515)">
          <g id="Group_18738" data-name="Group 18738">
            <g id="Path_16196" data-name="Path 16196" class="cls-4" transform="translate(-64.517 102.873)">
              <path class="cls-11" d="M 90.40113067626953 -76.15741729736328 L 65.55635833740234 -76.15741729736328 C 65.52956390380859 -76.48569488525391 65.51699829101562 -76.78595733642578 65.51699829101562 -77.08056640625 C 65.51699829101562 -79.81351470947266 66.38127899169922 -82.39885711669922 68.01641082763672 -84.55708312988281 C 69.06781768798828 -85.95432281494141 70.43840026855469 -87.13918304443359 71.98194122314453 -87.98618316650391 L 71.98534393310547 -87.98804473876953 L 71.98872375488281 -87.98993682861328 C 73.80206298828125 -89.00334930419922 75.87223052978516 -89.53900909423828 77.97541809082031 -89.53900909423828 C 80.07304382324219 -89.53900909423828 82.06008148193359 -89.03984832763672 83.88134002685547 -88.05537414550781 C 85.45831298828125 -87.21292877197266 86.86190032958984 -86.00543212890625 87.94469451904297 -84.56112670898438 L 87.94621276855469 -84.55909729003906 L 87.94773864746094 -84.55707550048828 C 89.58287048339844 -82.39887237548828 90.44715118408203 -79.81354522705078 90.44715118408203 -77.08056640625 C 90.44715118408203 -76.7686767578125 90.4290771484375 -76.46240997314453 90.40113067626953 -76.15741729736328 Z"/>
              <path class="cls-12" d="M 89.4468994140625 -77.15741729736328 C 89.43088531494141 -79.64215850830078 88.63772583007812 -81.99042510986328 87.15067291259766 -83.95319366455078 L 87.14761352539062 -83.95722198486328 L 87.14458465576172 -83.96127319335938 C 86.14888000488281 -85.28940582275391 84.85903167724609 -86.39931488037109 83.41447448730469 -87.17102813720703 L 83.41014862060547 -87.17333221435547 L 83.40583038330078 -87.17567443847656 C 81.73223114013672 -88.08031463623047 79.90518188476562 -88.53900909423828 77.97541809082031 -88.53900909423828 C 76.04263305664062 -88.53900909423828 74.14115905761719 -88.04728698730469 72.4765625 -87.11700439453125 L 72.46980285644531 -87.11322784423828 L 72.4630126953125 -87.10950469970703 C 71.04286193847656 -86.33020782470703 69.78224182128906 -85.24058532714844 68.81742858886719 -83.95842742919922 L 68.81546020507812 -83.95580291748047 L 68.81349182128906 -83.95319366455078 C 67.32642364501953 -81.99040985107422 66.53326416015625 -79.64212799072266 66.51725006103516 -77.15741729736328 L 89.4468994140625 -77.15741729736328 M 91.293212890625 -75.15741729736328 L 64.65953826904297 -75.15741729736328 C 64.57589721679688 -75.79402923583984 64.51699829101562 -76.41924285888672 64.51699829101562 -77.08056640625 C 64.51699829101562 -80.11167907714844 65.52040863037109 -82.91852569580078 67.21933746337891 -85.16096496582031 C 68.36334228515625 -86.68125915527344 69.82472229003906 -87.94309234619141 71.50086975097656 -88.86286926269531 C 73.42213439941406 -89.93658447265625 75.62846374511719 -90.53900909423828 77.97541809082031 -90.53900909423828 C 80.28817749023438 -90.53900909423828 82.45840454101562 -89.96127319335938 84.35685729980469 -88.93508911132812 C 86.07859802246094 -88.01530456542969 87.57798767089844 -86.71735382080078 88.74481201171875 -85.16096496582031 C 90.44376373291016 -82.91852569580078 91.44715118408203 -80.11167907714844 91.44715118408203 -77.08056640625 C 91.44715118408203 -76.41924285888672 91.37490844726562 -75.79402923583984 91.293212890625 -75.15741729736328 Z"/>
            </g>
            <g id="Ellipse_102" data-name="Ellipse 102" class="cls-5" transform="translate(8.007)">
              <circle class="cls-11" cx="5.459" cy="5.459" r="5.459"/>
              <circle class="cls-13" cx="5.459" cy="5.459" r="4.459"/>
            </g>
          </g>
          <g id="Group_18739" data-name="Group 18739" transform="translate(40.563)">
            <g id="Path_16197" data-name="Path 16197" class="cls-4" transform="translate(-90.097 102.873)">
              <path class="cls-11" d="M 115.9811325073242 -76.15741729736328 L 91.1363525390625 -76.15741729736328 C 91.10955047607422 -76.48574829101562 91.09699249267578 -76.78596496582031 91.09699249267578 -77.08056640625 C 91.09699249267578 -79.81353759765625 91.96127319335938 -82.39887237548828 93.59639739990234 -84.55707550048828 C 94.6478271484375 -85.95432281494141 96.01840209960938 -87.13918304443359 97.56193542480469 -87.98618316650391 L 97.56514739990234 -87.98794555664062 L 97.56834411621094 -87.98973846435547 C 99.38372802734375 -89.00327301025391 101.4540176391602 -89.53900909423828 103.5554122924805 -89.53900909423828 C 105.6530227661133 -89.53900909423828 107.6400680541992 -89.03983306884766 109.4613571166992 -88.05537414550781 L 109.4637069702148 -88.05410766601562 L 109.4660720825195 -88.05284881591797 C 111.0372772216797 -87.21439361572266 112.4407272338867 -86.00697326660156 113.5247116088867 -84.56111907958984 L 113.5262222290039 -84.55909729003906 L 113.5277481079102 -84.55708312988281 C 115.1628646850586 -82.39884185791016 116.0271377563477 -79.81350708007812 116.0271377563477 -77.08056640625 C 116.0271377563477 -76.7685546875 116.0090713500977 -76.46230316162109 115.9811325073242 -76.15741729736328 Z"/>
              <path class="cls-12" d="M 115.0268859863281 -77.15741729736328 C 115.010871887207 -79.64212036132812 114.2177124023438 -81.99040985107422 112.7306671142578 -83.95321655273438 L 112.7276229858398 -83.95722198486328 L 112.7246017456055 -83.96125793457031 C 111.7278137207031 -85.29081726074219 110.438232421875 -86.40059661865234 108.9952774047852 -87.17059326171875 L 108.9905548095703 -87.17311859130859 L 108.9858474731445 -87.17566680908203 C 107.3122253417969 -88.08031463623047 105.4851684570312 -88.53900909423828 103.5554122924805 -88.53900909423828 C 101.6242752075195 -88.53900909423828 99.72254180908203 -88.04714202880859 98.05582427978516 -87.11659240722656 L 98.0494384765625 -87.11302185058594 L 98.04300689697266 -87.10950469970703 C 96.62287139892578 -86.33021545410156 95.36224365234375 -85.24058532714844 94.39740753173828 -83.95840454101562 L 94.39544677734375 -83.95579528808594 L 94.39346313476562 -83.95319366455078 C 92.90641784667969 -81.99042510986328 92.11325836181641 -79.64214324951172 92.09724426269531 -77.15741729736328 L 115.0268859863281 -77.15741729736328 M 116.8731918334961 -75.15741729736328 L 90.23951721191406 -75.15741729736328 C 90.15589141845703 -75.79402923583984 90.09699249267578 -76.41924285888672 90.09699249267578 -77.08056640625 C 90.09699249267578 -80.11167907714844 91.10038757324219 -82.91852569580078 92.79932403564453 -85.16096496582031 C 93.94334411621094 -86.68125915527344 95.40472412109375 -87.94309234619141 97.08086395263672 -88.86286926269531 C 99.0040283203125 -89.93658447265625 101.2084579467773 -90.53900909423828 103.5554122924805 -90.53900909423828 C 105.8681564331055 -90.53900909423828 108.0383834838867 -89.96127319335938 109.9368667602539 -88.93508911132812 C 111.6604843139648 -88.01530456542969 113.1579742431641 -86.71735382080078 114.324821472168 -85.16096496582031 C 116.0237274169922 -82.91852569580078 117.0271377563477 -80.11167907714844 117.0271377563477 -77.08056640625 C 117.0271377563477 -76.41924285888672 116.9549255371094 -75.79402923583984 116.8731918334961 -75.15741729736328 Z"/>
            </g>
            <g id="Ellipse_102-2" data-name="Ellipse 102" class="cls-5" transform="translate(8.007)">
              <circle class="cls-11" cx="5.459" cy="5.459" r="5.459"/>
              <circle class="cls-13" cx="5.459" cy="5.459" r="4.459"/>
            </g>
          </g>
        </g>
        <g id="Group_18747" data-name="Group 18747" transform="translate(8.276 0)">
          <g id="Group_18743" data-name="Group 18743" class="cls-3" transform="translate(10.792 6.732)">
            <g id="Group_18742" data-name="Group 18742" transform="translate(0)">
              <g id="Group_18741" data-name="Group 18741">
                <path id="Path_16198" data-name="Path 16198" class="cls-6" d="M107.437-115.345h8.73v22.688H79.84v-5.824" transform="translate(-79.84 115.345)"/>
              </g>
            </g>
            <g id="Path_16199" data-name="Path 16199" class="cls-7" transform="translate(-60.928 128.297)">
              <path class="cls-11" d="M 97.96741485595703 -100.8639602661133 L 94.87997436523438 -104.6107635498047 L 97.96741485595703 -104.6107635498047 L 97.96741485595703 -100.8639602661133 Z"/>
              <path class="cls-12" d="M 92.76020050048828 -105.6107635498047 L 98.96741485595703 -105.6107635498047 L 98.96741485595703 -98.07791137695312 L 92.76020050048828 -105.6107635498047 Z"/>
            </g>
          </g>
          <g id="Group_18746" data-name="Group 18746" class="cls-3">
            <g id="Group_18745" data-name="Group 18745" class="cls-3">
              <g id="Group_18744" data-name="Group 18744">
                <g id="Rectangle_3745" data-name="Rectangle 3745" class="cls-5">
                  <rect class="cls-11" width="39.607" height="24.995"/>
                  <rect class="cls-13" x="1" y="1" width="37.607" height="22.995"/>
                </g>
              </g>
            </g>
            <g id="Path_16200" data-name="Path 16200" class="cls-8" transform="translate(-73.361 133.503)">
              <path class="cls-11" d="M73.361-108.509v7.533l6.207-7.533Z"/>
              <path class="cls-12" d="M 73.36082458496094 -108.5085601806641 L 79.568115234375 -108.5085601806641 L 73.36082458496094 -100.9757385253906 L 73.36082458496094 -108.5085601806641 Z"/>
            </g>
            <path id="Path_16201" data-name="Path 16201" class="cls-9" d="M1499.087-3456.088s-.3-2.95,2.587-3.078c3.55-.16,3.568,2.809,3.568,2.809a3.267,3.267,0,0,1-3.19,3.655.369.369,0,0,0-.354.365c0,1.779,0,2.457,0,2.457" transform="translate(-1482.221 3464.916)"/>
            <ellipse id="Ellipse_102-3" data-name="Ellipse 102" class="cls-10" cx="0.579" cy="0.579" rx="0.579" ry="0.579" transform="translate(19.027 18.4)"/>
          </g>
        </g>
      </g>
    </g>
  </g>
</svg>
