<svg xmlns="http://www.w3.org/2000/svg" xmlns:xlink="http://www.w3.org/1999/xlink" width="104" height="72" viewBox="0 0 104 72">
  <defs>
    <style>
      .cls-1, .cls-6 {
        fill: #fff;
      }

      .cls-1 {
        stroke: #707070;
      }

      .cls-2 {
        clip-path: url(#clip-path);
      }

      .cls-3 {
        fill: #0d54ae;
      }

      .cls-3, .cls-4 {
        stroke: #e5f0fb;
        stroke-width: 2px;
      }

      .cls-4 {
        fill: #7fb4ec;
      }

      .cls-5 {
        fill: #116ada;
      }
    </style>
    <clipPath id="clip-path">
      <rect id="Rectangle_3744" data-name="Rectangle 3744" class="cls-1" width="104" height="72" transform="translate(-9628 -20983)"/>
    </clipPath>
  </defs>
  <g id="Regular-mentorship" class="cls-2" transform="translate(9628 20983)">
    <g id="Group_18737" data-name="Group 18737" transform="translate(-9667.966 -17710.775)">
      <path id="Path_16190" data-name="Path 16190" class="cls-3" d="M60.686-3221.691v8.429H98.064v-8.429a8.909,8.909,0,0,0-9.05-9.05H69.806A9.1,9.1,0,0,0,60.686-3221.691Z" transform="translate(0 8.871)"/>
      <path id="Path_16191" data-name="Path 16191" class="cls-4" d="M77.889-3229.96a10.468,10.468,0,0,0,10.433-10.432,10.468,10.468,0,0,0-10.433-10.433,10.467,10.467,0,0,0-10.433,10.433A10.513,10.513,0,0,0,77.889-3229.96Z" transform="translate(1.521 1.615)"/>
      <path id="Path_16192" data-name="Path 16192" class="cls-4" d="M97.385-3229.554a8.168,8.168,0,0,0,8.153-8.153,8.258,8.258,0,0,0-8.153-8.153,8.167,8.167,0,0,0-8.153,8.153A8.213,8.213,0,0,0,97.385-3229.554Z" transform="translate(11.899 2.731)"/>
      <path id="Path_16193" data-name="Path 16193" class="cls-3" d="M104.625-3230.121H90.53a10.984,10.984,0,0,1,3.8,8.361l.345,8.36H111.81v-9.6A7.079,7.079,0,0,0,104.625-3230.121Z" transform="translate(12.191 9.01)"/>
      <path id="Path_16194" data-name="Path 16194" class="cls-5" d="M107.915-3261.113a12.25,12.25,0,0,0-14.922-8.705,12.2,12.2,0,0,0-8.706,14.923,12.226,12.226,0,0,0,5.251,7.186L86.36-3242.8l12.92-3.385A12.231,12.231,0,0,0,107.915-3261.113Z" transform="translate(7.91)"/>
      <path id="Path_16195" data-name="Path 16195" class="cls-6" d="M90.88-3255.347a1.13,1.13,0,0,0,.448,1.1,1.124,1.124,0,0,0,1.187.084l2.424-1.273,2.422,1.273a1.126,1.126,0,0,0,.524.13,1.121,1.121,0,0,0,.663-.216,1.126,1.126,0,0,0,.448-1.1l-.463-2.7,1.961-1.912a1.126,1.126,0,0,0,.285-1.155,1.127,1.127,0,0,0-.91-.767l-2.709-.394-1.211-2.454a1.127,1.127,0,0,0-1.01-.628,1.127,1.127,0,0,0-1.01.628l-1.211,2.454-2.71.394a1.129,1.129,0,0,0-.91.767,1.126,1.126,0,0,0,.285,1.155l1.961,1.912Z" transform="translate(9.071 1.094)"/>
    </g>
  </g>
</svg>
