<svg xmlns="http://www.w3.org/2000/svg" version="1.1" xmlns:xlink="http://www.w3.org/1999/xlink" xmlns:svgjs="http://svgjs.dev/svgjs" width="1440" height="560" preserveAspectRatio="none" viewBox="0 0 1440 560"><g mask="url(&quot;#SvgjsMask1000&quot;)" fill="none"><rect width="1440" height="560" x="0" y="0" fill="#0e2a47"></rect><path d="M 0,150 C 57.6,141 172.8,82.8 288,105 C 403.2,127.2 460.8,271.2 576,261 C 691.2,250.8 748.8,75.2 864,54 C 979.2,32.8 1036.8,160.4 1152,155 C 1267.2,149.6 1382.4,52.6 1440,27L1440 560L0 560z" fill="#184a7e"></path><path d="M 0,559 C 96,524.8 288,398.6 480,388 C 672,377.4 768,521.6 960,506 C 1152,490.4 1344,349.2 1440,310L1440 560L0 560z" fill="#2264ab"></path></g><defs><mask id="SvgjsMask1000"><rect width="1440" height="560" fill="#ffffff"></rect></mask></defs></svg>